<svg xmlns="http://www.w3.org/2000/svg" width="26" height="26" viewBox="0 0 26 26">
  <metadata><?xpacket begin="﻿" id="W5M0MpCehiHzreSzNTczkc9d"?>
<x:xmpmeta xmlns:x="adobe:ns:meta/" x:xmptk="Adobe XMP Core 5.6-c138 79.159824, 2016/09/14-01:09:01        ">
   <rdf:RDF xmlns:rdf="http://www.w3.org/1999/02/22-rdf-syntax-ns#">
      <rdf:Description rdf:about=""/>
   </rdf:RDF>
</x:xmpmeta>
                                                                                                    
                                                                                                    
                                                                                                    
                                                                                                    
                                                                                                    
                                                                                                    
                                                                                                    
                                                                                                    
                                                                                                    
                                                                                                    
                                                                                                    
                                                                                                    
                                                                                                    
                                                                                                    
                                                                                                    
                                                                                                    
                                                                                                    
                                                                                                    
                                                                                                    
                                                                                                    
                           
<?xpacket end="w"?></metadata>
<defs>
    <style>
      .cls-1 {
        fill: #fff;
        fill-rule: evenodd;
      }
    </style>
  </defs>
  <path id="Dribbble_4" data-name="Dribbble 4" class="cls-1" d="M356,2873h22a2,2,0,0,1,2,2v22a2,2,0,0,1-2,2H356a2,2,0,0,1-2-2v-22A2,2,0,0,1,356,2873Zm11.031,24.08A10.965,10.965,0,1,1,378,2886.11,10.981,10.981,0,0,1,367.031,2897.08Zm9.251-9.46a13.6,13.6,0,0,0-5.836-.4,40.274,40.274,0,0,1,1.82,6.68A9.42,9.42,0,0,0,376.282,2887.62Zm-5.591,7.13a38.95,38.95,0,0,0-2-7.1c-0.02.01-.041,0.01-0.062,0.02a12.862,12.862,0,0,0-7.35,5.85A9.328,9.328,0,0,0,370.691,2894.75Zm-10.62-2.36a14.87,14.87,0,0,1,7.615-6.18c0.122-.04.246-0.08,0.369-0.11-0.235-.53-0.491-1.07-0.759-1.59a34.438,34.438,0,0,1-9.629,1.33c0,0.1,0,.19,0,0.29A9.309,9.309,0,0,0,360.071,2892.39Zm-2.211-8.18a34.876,34.876,0,0,0,8.662-1.14,60.159,60.159,0,0,0-3.474-5.42A9.4,9.4,0,0,0,357.86,2884.21Zm6.976-7.19a50.269,50.269,0,0,1,3.5,5.48,10.523,10.523,0,0,0,4.91-3.38A9.363,9.363,0,0,0,364.836,2877.02Zm9.448,3.18a12.5,12.5,0,0,1-5.232,3.7c0.218,0.44.427,0.9,0.622,1.35,0.068,0.17.136,0.33,0.2,0.49a21.818,21.818,0,0,1,6.524.3A9.345,9.345,0,0,0,374.284,2880.2Z" transform="translate(-354 -2873)"/>
</svg>
