<svg xmlns="http://www.w3.org/2000/svg" width="26" height="26" viewBox="0 0 26 26">
  <metadata><?xpacket begin="﻿" id="W5M0MpCehiHzreSzNTczkc9d"?>
<x:xmpmeta xmlns:x="adobe:ns:meta/" x:xmptk="Adobe XMP Core 5.6-c138 79.159824, 2016/09/14-01:09:01        ">
   <rdf:RDF xmlns:rdf="http://www.w3.org/1999/02/22-rdf-syntax-ns#">
      <rdf:Description rdf:about=""/>
   </rdf:RDF>
</x:xmpmeta>
                                                                                                    
                                                                                                    
                                                                                                    
                                                                                                    
                                                                                                    
                                                                                                    
                                                                                                    
                                                                                                    
                                                                                                    
                                                                                                    
                                                                                                    
                                                                                                    
                                                                                                    
                                                                                                    
                                                                                                    
                                                                                                    
                                                                                                    
                                                                                                    
                                                                                                    
                                                                                                    
                           
<?xpacket end="w"?></metadata>
<defs>
    <style>
      .cls-1 {
        fill: #fff;
        fill-rule: evenodd;
      }
    </style>
  </defs>
  <path id="Facebook" class="cls-1" d="M217,2873h22a2,2,0,0,1,2,2v22a2,2,0,0,1-2,2H217a2,2,0,0,1-2-2v-22A2,2,0,0,1,217,2873Zm1.913,13.98h1.942v10.05h4.151v-10.05H227.6l0.717-3.04h-3.306v-1.13a2.094,2.094,0,0,1,.4-1.5,2.123,2.123,0,0,1,1.419-.46,3.594,3.594,0,0,1,1.765.71l0.757-2.86a11.7,11.7,0,0,0-3.331-.73,7.649,7.649,0,0,0-3.109.56,3.645,3.645,0,0,0-1.622,1.65,5.71,5.71,0,0,0-.433,2.56v1.2h-1.942v3.04Z" transform="translate(-215 -2873)"/>
</svg>
