<svg xmlns="http://www.w3.org/2000/svg" width="26" height="26" viewBox="0 0 26 26">
  <metadata><?xpacket begin="﻿" id="W5M0MpCehiHzreSzNTczkc9d"?>
<x:xmpmeta xmlns:x="adobe:ns:meta/" x:xmptk="Adobe XMP Core 5.6-c138 79.159824, 2016/09/14-01:09:01        ">
   <rdf:RDF xmlns:rdf="http://www.w3.org/1999/02/22-rdf-syntax-ns#">
      <rdf:Description rdf:about=""/>
   </rdf:RDF>
</x:xmpmeta>
                                                                                                    
                                                                                                    
                                                                                                    
                                                                                                    
                                                                                                    
                                                                                                    
                                                                                                    
                                                                                                    
                                                                                                    
                                                                                                    
                                                                                                    
                                                                                                    
                                                                                                    
                                                                                                    
                                                                                                    
                                                                                                    
                                                                                                    
                                                                                                    
                                                                                                    
                                                                                                    
                           
<?xpacket end="w"?></metadata>
<defs>
    <style>
      .cls-1 {
        fill: #fff;
        fill-rule: evenodd;
      }
    </style>
  </defs>
  <path id="Google_" data-name="Google+" class="cls-1" d="M263,2873h22a2,2,0,0,1,2,2v22a2,2,0,0,1-2,2H263a2,2,0,0,1-2-2v-22A2,2,0,0,1,263,2873Zm16,5h2v8h-2v-8Zm-3,3h8v2h-8v-2Zm-1.409-2.99-0.88,1.02-1.658.07a3.235,3.235,0,0,1,1.467,2.85c0,2.06-1.795,2.63-2.227,3.99,0,1.56,3.271,1.71,3.2,4.61-0.242,4.01-4.152,3.9-5.171,3.97-5.094-.26-5.379-3.05-5.379-3.05,0-3.78,6-3.75,6-3.75-0.967-.67-0.328-2.07-0.328-2.07-4.559-.28-4.231-3.54-4.231-3.54a4.456,4.456,0,0,1,3.678-4.11Zm-5.971,1.2c1.094-.3,2.436.73,2.934,2.29s-0.036,3.08-1.13,3.38-2.384-.72-2.883-2.29S267.526,2879.51,268.62,2879.21Zm1.026,9.23c1.857,0,3.362,1.21,3.362,2.57s-1.5,2.47-3.362,2.47-3.676-1.1-3.676-2.47S267.788,2888.44,269.646,2888.44Z" transform="translate(-261 -2873)"/>
</svg>
