<svg xmlns="http://www.w3.org/2000/svg" width="26" height="26" viewBox="0 0 26 26">
  <metadata><?xpacket begin="﻿" id="W5M0MpCehiHzreSzNTczkc9d"?>
<x:xmpmeta xmlns:x="adobe:ns:meta/" x:xmptk="Adobe XMP Core 5.6-c138 79.159824, 2016/09/14-01:09:01        ">
   <rdf:RDF xmlns:rdf="http://www.w3.org/1999/02/22-rdf-syntax-ns#">
      <rdf:Description rdf:about=""/>
   </rdf:RDF>
</x:xmpmeta>
                                                                                                    
                                                                                                    
                                                                                                    
                                                                                                    
                                                                                                    
                                                                                                    
                                                                                                    
                                                                                                    
                                                                                                    
                                                                                                    
                                                                                                    
                                                                                                    
                                                                                                    
                                                                                                    
                                                                                                    
                                                                                                    
                                                                                                    
                                                                                                    
                                                                                                    
                                                                                                    
                           
<?xpacket end="w"?></metadata>
<defs>
    <style>
      .cls-1 {
        fill: #fff;
        fill-rule: evenodd;
      }
    </style>
  </defs>
  <path id="Vimeo" class="cls-1" d="M310,2873h22a2,2,0,0,1,2,2v22a2,2,0,0,1-2,2H310a2,2,0,0,1-2-2v-22A2,2,0,0,1,310,2873Zm4.645,4.31s2.4-1.41,3.215.06c0.653,0.43,2.343,9.21,2.669,11s1.2,2.46,1.744,1.69a22.206,22.206,0,0,0,3.541-5.39c1.2-2.83-.381-3.05-0.871-2.89s-3.051.22-2.125-.87a20.9,20.9,0,0,1,3.814-3.49c1.144-.76,2.833-1.69,4.25-0.05,0.871,0.65,2.887,3.05.926,6.59s-9.644,12.59-9.644,12.59-2.779,1.85-3.923,0a85.875,85.875,0,0,1-4.958-12.75c-0.109-1.2-.436-1.53-1.035-1.2s-1.8,2.12-1.907,1.58-1.2-1.2-.545-2.29S314.155,2877.69,314.645,2877.31Z" transform="translate(-308 -2873)"/>
</svg>
