<svg xmlns="http://www.w3.org/2000/svg" width="31.031" height="28" viewBox="0 0 31.031 28">
  <metadata><?xpacket begin="﻿" id="W5M0MpCehiHzreSzNTczkc9d"?>
<x:xmpmeta xmlns:x="adobe:ns:meta/" x:xmptk="Adobe XMP Core 5.6-c138 79.159824, 2016/09/14-01:09:01        ">
   <rdf:RDF xmlns:rdf="http://www.w3.org/1999/02/22-rdf-syntax-ns#">
      <rdf:Description rdf:about=""/>
   </rdf:RDF>
</x:xmpmeta>
                                                                                                    
                                                                                                    
                                                                                                    
                                                                                                    
                                                                                                    
                                                                                                    
                                                                                                    
                                                                                                    
                                                                                                    
                                                                                                    
                                                                                                    
                                                                                                    
                                                                                                    
                                                                                                    
                                                                                                    
                                                                                                    
                                                                                                    
                                                                                                    
                                                                                                    
                                                                                                    
                           
<?xpacket end="w"?></metadata>
<defs>
    <style>
      .cls-1 {
        fill: #fff;
        fill-rule: evenodd;
      }
    </style>
  </defs>
  <path id="YouTube_4" data-name="YouTube 4" class="cls-1" d="M399,2873h28a1,1,0,0,1,1,1v13a1,1,0,0,1-1,1H399a1,1,0,0,1-1-1v-13A1,1,0,0,1,399,2873Zm14.515,2.86a4.515,4.515,0,1,1-4.515,4.52A4.516,4.516,0,0,1,413.515,2875.86Zm-1.526,2.31s0-.46.236-0.22l2.673,2.42s0.211,0.03,0,.25l-2.681,2.49s-0.225.23-.225-0.23v-4.71ZM414,2891h11a4,4,0,0,1,4,4v2a4,4,0,0,1-4,4H414a4,4,0,0,1-4-4v-2A4,4,0,0,1,414,2891Zm-1.953,1.96v1.11h0.972v5.06h1.27v-5.06h1.352v-1.11h-3.594Zm5.926,0.98v3.49a4.415,4.415,0,0,1-.034.76,0.715,0.715,0,0,1-.427.11,0.176,0.176,0,0,1-.2-0.11,2.247,2.247,0,0,1-.1-0.72v-3.53h-1.266v3.5a8.714,8.714,0,0,0,.028.89,1.155,1.155,0,0,0,.138.43,0.865,0.865,0,0,0,.346.34,0.438,0.438,0,0,0,.34.12,1.111,1.111,0,0,0,.553-0.13,1.926,1.926,0,0,0,.623-0.39l-0.028.43h1.324v-5.19h-1.3Zm1.988-1.04v6.23h1.1l0.1-.39a1.835,1.835,0,0,0,.564.36,0.51,0.51,0,0,0,.33.12,1.464,1.464,0,0,0,.762-0.2,0.9,0.9,0,0,0,.358-0.49,3.448,3.448,0,0,0,.076-0.85v-2.33a6.841,6.841,0,0,0-.025-0.75,0.857,0.857,0,0,0-.151-0.36,0.78,0.78,0,0,0-.363-0.29,1.9,1.9,0,0,0-.657-0.1,0.561,0.561,0,0,0-.333.11,1.9,1.9,0,0,0-.561.34v-1.4h-1.2Zm1.965,4.7a2.173,2.173,0,0,1-.045.58,0.185,0.185,0,0,1-.194.12,0.966,0.966,0,0,1-.474-0.11,1.793,1.793,0,0,1-.049-0.54v-2.23a1.929,1.929,0,0,1,.043-0.54,0.389,0.389,0,0,1,.312-0.11,0.5,0.5,0,0,1,.356.12,1.7,1.7,0,0,1,.051.53v2.18Zm5.422-1.66a3.148,3.148,0,0,0-.174-1.17,1.388,1.388,0,0,0-.606-0.67,0.618,0.618,0,0,0-.564-0.25,2.114,2.114,0,0,0-.961.21,1.578,1.578,0,0,0-.727.6,2.574,2.574,0,0,0-.183,1.07v1.51a3.67,3.67,0,0,0,.082.89,1.432,1.432,0,0,0,.3.55,1.96,1.96,0,0,0,.721.4,2.641,2.641,0,0,0,.882.14c0.344,0,.1-0.05.326-0.15a1.343,1.343,0,0,0,.565-0.43,1.509,1.509,0,0,0,.283-0.56,1.278,1.278,0,0,0,.061-0.48v-0.39H426.2v0.69a0.309,0.309,0,0,1-.06.27,0.235,0.235,0,0,1-.241.13,0.452,0.452,0,0,1-.32-0.1,1.244,1.244,0,0,1-.051-0.45v-1.25h1.825v-0.56Zm-1.793,0v-0.38a2.136,2.136,0,0,1,.039-0.54,0.486,0.486,0,0,1,.328-0.1,0.171,0.171,0,0,1,.176.12,1.942,1.942,0,0,1,.043.52v0.38h-0.586Zm-24.765-2.98c-0.214.99-.836,1.66-0.927,2.34-0.03-.43-0.6-1.11-0.837-2.34h-1.073l1.156,3.88v2.13h1.305v-2.13l1.512-3.88H400.79Zm4.271,1.98a1.455,1.455,0,0,0-.284-0.52,1.421,1.421,0,0,0-.588-0.35,1.18,1.18,0,0,0-.63-0.13,1.214,1.214,0,0,0-.821.22,1.16,1.16,0,0,0-.562.59,3.237,3.237,0,0,0-.157,1.13v1.33a4.243,4.243,0,0,0,.086.99,0.8,0.8,0,0,0,.288.4,1.2,1.2,0,0,0,.564.35,2.287,2.287,0,0,0,.73.02,0.991,0.991,0,0,0,.487-0.04,1.123,1.123,0,0,0,.592-0.26,1.441,1.441,0,0,0,.3-0.61,5.38,5.38,0,0,0,.071-1.03v-1.27A3.332,3.332,0,0,0,405.061,2894.94Zm-1.159,2.67a1.366,1.366,0,0,1-.045.44,0.676,0.676,0,0,1-.373.1,0.428,0.428,0,0,1-.308-0.11,1.581,1.581,0,0,1-.047-0.48v-2.19a1.605,1.605,0,0,1,.047-0.5,0.431,0.431,0,0,1,.312-0.1,0.592,0.592,0,0,1,.371.1,1.723,1.723,0,0,1,.043.5v2.24Zm4.227-3.6v3.42a4.586,4.586,0,0,1-.033.76,3.357,3.357,0,0,1-.9.11,0.177,0.177,0,0,1-.2-0.11,3.662,3.662,0,0,1-.037-0.72v-3.46h-0.828v3.43c0,0.45.009,0.74,0.027,0.89a0.516,0.516,0,0,0,.139.25,0.835,0.835,0,0,0,.345.33c0.157,0.08-.522.12-0.285,0.12a1.8,1.8,0,0,0,.709-0.1,3.74,3.74,0,0,0,1.061-.33l-0.027.43h0.949v-5.02h-0.922Z" transform="translate(-397.969 -2873)"/>
</svg>
